<?xml version="1.0" standalone="no"?>
<!DOCTYPE svg PUBLIC "-//W3C//DTD SVG 20010904//EN"
 "http://www.w3.org/TR/2001/REC-SVG-20010904/DTD/svg10.dtd">
<svg version="1.0" xmlns="http://www.w3.org/2000/svg"
 width="2550.000000pt" height="1700.000000pt" viewBox="0 0 2550.000000 1700.000000"
 preserveAspectRatio="xMidYMid meet">

<g transform="translate(0.000000,1700.000000) scale(0.100000,-0.100000)"
fill="#000000" stroke="none">
<path d="M14570 15296 c-272 -32 -542 -103 -648 -170 -79 -49 -94 -129 -41
-209 74 -111 253 -241 764 -552 620 -377 941 -608 1151 -827 87 -91 191 -218
180 -218 -11 0 -439 177 -776 320 -795 338 -1222 490 -1645 585 -568 127 -981
133 -1340 18 -200 -64 -476 -209 -496 -260 -14 -36 -11 -129 5 -167 10 -25 27
-40 67 -59 72 -34 305 -98 514 -142 433 -91 566 -125 1005 -260 621 -192 1015
-357 1341 -563 182 -114 390 -274 474 -362 l40 -42 -70 7 c-102 10 -274 46
-593 125 -448 112 -576 133 -857 146 -409 18 -945 -75 -1502 -261 -569 -190
-1041 -427 -1427 -717 -238 -179 -381 -314 -981 -929 -327 -335 -443 -435
-710 -617 l-120 -81 -94 14 c-143 22 -381 30 -486 16 -401 -54 -672 -369 -590
-686 22 -84 76 -172 185 -303 52 -62 109 -134 126 -160 l32 -46 -342 -229
c-405 -273 -629 -428 -711 -494 -33 -27 -172 -127 -310 -223 -279 -194 -397
-279 -628 -453 -171 -128 -204 -166 -234 -266 -30 -105 4 -239 79 -306 53 -48
73 -54 191 -59 121 -5 235 12 344 53 195 71 940 428 1293 619 91 49 167 88
169 86 7 -6 -160 -192 -276 -305 -147 -145 -238 -223 -428 -370 -82 -64 -202
-162 -265 -218 -63 -55 -232 -183 -375 -283 -244 -171 -651 -466 -740 -538
-137 -109 -163 -331 -53 -464 52 -63 92 -76 243 -76 205 0 241 12 741 243 471
217 950 467 1529 797 110 63 266 142 346 175 186 79 478 229 645 333 312 194
534 366 1124 872 677 580 844 713 1165 927 167 111 584 353 608 353 11 0 8
-2062 -3 -2215 -37 -493 -162 -926 -359 -1238 -24 -37 -41 -71 -39 -77 1 -5
140 -154 308 -331 l305 -321 249 -124 c137 -69 253 -123 259 -121 31 10 235
386 312 576 82 200 177 528 205 702 l12 77 52 6 c172 20 1099 96 1104 91 14
-14 -62 -64 -112 -75 -28 -7 -189 -24 -358 -39 -169 -15 -310 -30 -313 -33 -4
-4 80 -245 277 -791 9 -24 47 -46 261 -154 l251 -125 71 6 c636 59 871 123
1025 276 138 137 186 294 210 685 6 103 10 798 10 1758 l0 1587 -254 127 -255
127 -1470 -128 c-808 -70 -1478 -126 -1488 -124 -45 10 645 307 1637 707 438
176 711 278 795 297 165 37 478 -7 936 -131 258 -71 490 -143 1159 -360 668
-217 806 -260 1072 -335 241 -69 242 -69 237 -74 -2 -2 -255 -26 -561 -53
l-558 -48 0 -1448 0 -1447 241 -117 241 -117 -28 -24 c-79 -64 -252 -171 -359
-222 -92 -44 -349 -142 -472 -181 -7 -2 76 -157 205 -385 l217 -382 256 -128
256 -127 124 42 c139 47 366 155 479 229 182 118 417 336 550 511 l64 85 17
-50 c56 -166 150 -262 359 -366 192 -95 398 -148 574 -148 90 0 501 30 686 50
406 45 540 132 640 415 17 49 40 140 50 201 18 105 40 377 40 494 l0 55 -185
95 -185 95 -2 1450 -3 1450 -252 127 -252 128 -508 -45 c-279 -24 -526 -45
-548 -47 -38 -3 -40 -2 -48 36 -12 47 -95 134 -187 195 -94 62 -380 199 -570
274 -348 138 -684 247 -1815 591 -392 119 -612 190 -560 180 17 -3 75 -15 130
-25 131 -26 341 -38 485 -29 261 18 536 104 746 235 40 25 76 45 81 45 6 0
170 -51 364 -114 578 -187 871 -271 1139 -327 137 -29 174 -32 320 -33 153 -1
168 1 211 22 48 23 93 76 104 123 9 37 -16 90 -65 139 -151 151 -570 331
-1317 567 -172 54 -313 102 -313 106 0 4 20 49 44 100 116 243 141 467 92 822
-31 223 -46 274 -97 329 -21 24 -121 101 -221 172 -378 265 -537 431 -1013
1054 -362 473 -535 676 -745 873 -292 274 -596 448 -930 533 -179 45 -449 62
-640 40z m1947 -2745 c87 -40 129 -140 121 -290 -12 -197 -117 -295 -279 -261
-219 47 -302 303 -155 477 15 17 54 46 88 62 74 38 158 42 225 12z m-692
-1759 c-6 -6 -211 94 -219 107 -4 6 44 -14 108 -46 63 -31 113 -59 111 -61z
m4555 -2762 l0 -1399 -32 -5 c-18 -3 -157 -17 -308 -31 -151 -14 -299 -28
-327 -31 l-53 -6 0 -258 c0 -209 3 -260 14 -269 11 -9 46 -9 143 -1 149 12
197 28 214 74 7 19 14 118 17 254 3 160 8 222 16 219 6 -2 164 -53 350 -113
l339 -109 -6 -190 c-9 -282 -53 -500 -127 -631 -37 -64 -122 -144 -186 -177
-119 -59 -222 -76 -725 -117 -391 -32 -439 -31 -535 16 -59 28 -122 92 -154
155 -12 23 -31 84 -41 133 -17 81 -19 140 -19 525 l0 434 -92 -7 c-51 -4 -114
-10 -140 -13 l-47 -5 -12 -57 c-52 -254 -192 -557 -354 -766 -261 -337 -561
-549 -979 -691 -55 -19 -101 -32 -103 -31 -9 9 -384 670 -381 672 2 1 28 10
58 20 192 61 475 189 600 270 130 85 269 223 338 339 34 55 84 168 78 174 -2
2 -159 -11 -348 -27 -189 -17 -347 -31 -351 -31 -4 0 -7 632 -7 1404 l0 1404
53 6 c223 26 1115 97 1167 93 36 -3 126 -17 200 -31 159 -31 357 -46 455 -35
86 11 167 49 194 92 11 18 25 38 30 46 7 11 120 24 483 57 260 23 497 42 526
43 l52 1 0 -1400z m-5020 -247 c0 -990 -4 -1670 -10 -1753 -16 -218 -53 -373
-112 -478 -29 -50 -123 -146 -179 -183 -113 -72 -324 -124 -649 -158 -107 -12
-215 -24 -240 -26 l-45 -6 -127 358 c-71 197 -128 363 -128 369 0 6 107 19
278 33 152 12 308 29 346 36 148 31 165 63 166 313 0 162 0 162 -22 161 -13 0
-410 -35 -883 -77 l-859 -77 -18 -95 c-48 -261 -122 -517 -215 -745 -54 -132
-216 -433 -263 -488 -6 -6 -550 552 -558 573 -2 4 14 34 35 67 84 131 161 290
200 413 59 186 105 389 135 592 21 138 22 185 27 1312 l6 1170 33 19 c29 17
125 28 700 78 367 33 1043 92 1502 133 459 40 845 74 858 75 l22 1 0 -1617z"/>
<path d="M18755 8604 c-451 -40 -823 -73 -827 -73 -5 -1 -8 -33 -8 -71 l0 -71
33 5 c17 3 408 38 867 76 459 39 841 73 848 75 8 3 12 26 12 70 l0 65 -52 -1
c-29 -1 -422 -35 -873 -75z"/>
<path d="M19600 8033 c-25 -3 -1655 -143 -1671 -143 -5 0 -9 -31 -9 -70 0 -60
2 -70 18 -70 9 0 399 34 866 75 467 41 855 75 862 75 11 0 14 18 14 70 l0 70
-27 -1 c-16 -1 -39 -4 -53 -6z"/>
<path d="M18955 7324 c-335 -29 -704 -61 -820 -71 l-210 -18 -3 -69 -3 -68 58
6 c78 9 1668 146 1687 146 13 0 16 13 16 65 l0 65 -57 -1 c-32 -1 -332 -25
-668 -55z"/>
<path d="M13800 8510 c-465 -43 -846 -79 -847 -79 -2 -1 -3 -80 -3 -176 l0
-175 30 0 c32 0 1555 136 1633 146 l47 6 0 179 c0 98 -3 178 -7 178 -5 -1
-388 -37 -853 -79z"/>
<path d="M14250 7484 c-466 -43 -1262 -114 -1283 -114 -15 0 -17 -19 -17 -180
0 -154 2 -180 15 -180 20 0 1575 138 1643 145 l52 6 0 180 0 179 -27 -1 c-16
-1 -188 -16 -383 -35z"/>
</g>
</svg>
